<svg width="221" height="53" viewBox="0 0 221 53" fill="none" xmlns="http://www.w3.org/2000/svg">
<path fill-rule="evenodd" clip-rule="evenodd" d="M51.457 27.7724C51.457 33.5818 49.393 38.909 45.9582 43.0609L51.322 51.0436C51.7458 51.6744 51.0808 52.467 50.3859 52.1591L40.631 47.8367C36.8493 50.3248 32.3222 51.7724 27.457 51.7724C14.2022 51.7724 3.45703 41.0272 3.45703 27.7724C3.45703 14.5176 14.2022 3.7724 27.457 3.7724C40.7119 3.7724 51.457 14.5176 51.457 27.7724ZM13.5453 33.3739C17.8684 38.9793 29.1874 47.5828 42.2555 33.3739C43.2783 32.5034 45.6085 33.3739 42.2555 37.4962C37.6361 43.1756 25.4511 51.1977 13.5453 37.4962C10.9184 35.2291 12.1401 32.0233 13.5453 33.3739Z" fill="#206CDF"/>
<circle cx="14" cy="14" r="14" fill="url(#paint0_linear_559_16879)"/>
<circle cx="14" cy="14" r="7" fill="url(#paint1_linear_559_16879)"/>
<circle cx="42" cy="14" r="14" fill="url(#paint2_linear_559_16879)"/>
<circle cx="42" cy="14" r="7" fill="url(#paint3_linear_559_16879)"/>
<path d="M95.12 38.0098C92.312 38.0098 89.9 37.4698 87.884 36.3898C85.868 35.3098 84.32 33.7858 83.24 31.8178C82.184 29.8498 81.656 27.5458 81.656 24.9058C81.656 22.9378 81.956 21.1498 82.556 19.5418C83.18 17.9338 84.068 16.5538 85.22 15.4018C86.396 14.2498 87.812 13.3738 89.468 12.7738C91.148 12.1498 93.032 11.8378 95.12 11.8378C96.224 11.8378 97.364 11.9698 98.54 12.2338C99.74 12.4738 100.796 12.8458 101.708 13.3498C102.38 13.7098 102.848 14.1658 103.112 14.7178C103.376 15.2698 103.46 15.8338 103.364 16.4098C103.292 16.9858 103.088 17.5018 102.752 17.9578C102.416 18.4138 101.984 18.7258 101.456 18.8938C100.928 19.0378 100.352 18.9538 99.728 18.6418C99.008 18.3058 98.288 18.0538 97.568 17.8858C96.872 17.6938 96.14 17.5978 95.372 17.5978C93.884 17.5978 92.636 17.8858 91.628 18.4618C90.644 19.0138 89.9 19.8298 89.396 20.9098C88.892 21.9898 88.64 23.3218 88.64 24.9058C88.64 26.4898 88.892 27.8338 89.396 28.9378C89.9 30.0178 90.644 30.8458 91.628 31.4218C92.636 31.9738 93.884 32.2498 95.372 32.2498C95.996 32.2498 96.668 32.1778 97.388 32.0338C98.108 31.8658 98.816 31.6138 99.512 31.2778C100.232 30.9658 100.868 30.8818 101.42 31.0258C101.996 31.1698 102.452 31.4578 102.788 31.8898C103.148 32.3218 103.376 32.8258 103.472 33.4018C103.568 33.9538 103.484 34.5058 103.22 35.0578C102.98 35.6098 102.548 36.0538 101.924 36.3898C101.084 36.8938 100.04 37.2898 98.792 37.5778C97.568 37.8658 96.344 38.0098 95.12 38.0098ZM109.825 37.9378C108.817 37.9378 108.037 37.6618 107.485 37.1098C106.933 36.5578 106.657 35.7538 106.657 34.6978V15.1498C106.657 14.0938 106.933 13.2898 107.485 12.7378C108.037 12.1858 108.817 11.9098 109.825 11.9098C110.857 11.9098 111.649 12.1858 112.201 12.7378C112.777 13.2898 113.065 14.0938 113.065 15.1498V22.9978H112.489C113.065 21.8698 113.881 21.0058 114.937 20.4058C116.017 19.8058 117.241 19.5058 118.609 19.5058C120.025 19.5058 121.189 19.7818 122.101 20.3338C123.013 20.8618 123.697 21.7018 124.153 22.8538C124.609 23.9818 124.837 25.4098 124.837 27.1378V34.6978C124.837 35.7538 124.561 36.5578 124.009 37.1098C123.457 37.6618 122.665 37.9378 121.633 37.9378C120.601 37.9378 119.809 37.6618 119.257 37.1098C118.705 36.5578 118.429 35.7538 118.429 34.6978V27.3898C118.429 26.3098 118.237 25.5418 117.853 25.0858C117.493 24.6298 116.953 24.4018 116.233 24.4018C115.273 24.4018 114.505 24.7138 113.929 25.3378C113.353 25.9378 113.065 26.7538 113.065 27.7858V34.6978C113.065 36.8578 111.985 37.9378 109.825 37.9378ZM134.645 38.0098C133.277 38.0098 132.065 37.7578 131.009 37.2538C129.977 36.7498 129.161 36.0658 128.561 35.2018C127.985 34.3138 127.697 33.3058 127.697 32.1778C127.697 30.8818 128.033 29.8618 128.705 29.1178C129.377 28.3738 130.457 27.8458 131.945 27.5338C133.433 27.1978 135.413 27.0298 137.885 27.0298H139.865V30.0538H137.885C136.949 30.0538 136.169 30.1258 135.545 30.2698C134.945 30.3898 134.501 30.5938 134.213 30.8818C133.925 31.1458 133.781 31.4938 133.781 31.9258C133.781 32.4778 133.973 32.9338 134.357 33.2938C134.765 33.6538 135.341 33.8338 136.085 33.8338C136.685 33.8338 137.213 33.7018 137.669 33.4378C138.149 33.1738 138.533 32.8138 138.821 32.3578C139.109 31.8778 139.253 31.3258 139.253 30.7018V26.5258C139.253 25.6618 139.025 25.0498 138.569 24.6898C138.137 24.3298 137.381 24.1498 136.301 24.1498C135.725 24.1498 135.077 24.2218 134.357 24.3658C133.637 24.4858 132.833 24.7138 131.945 25.0498C131.297 25.2898 130.745 25.3258 130.289 25.1578C129.833 24.9898 129.473 24.7018 129.209 24.2938C128.969 23.8858 128.849 23.4418 128.849 22.9618C128.873 22.4818 129.029 22.0258 129.317 21.5938C129.629 21.1618 130.097 20.8258 130.721 20.5858C131.873 20.1538 132.929 19.8658 133.889 19.7218C134.873 19.5778 135.773 19.5058 136.589 19.5058C138.557 19.5058 140.177 19.7938 141.449 20.3698C142.745 20.9218 143.705 21.7858 144.329 22.9618C144.977 24.1138 145.301 25.6018 145.301 27.4258V34.6978C145.301 35.7538 145.049 36.5578 144.545 37.1098C144.041 37.6618 143.309 37.9378 142.349 37.9378C141.365 37.9378 140.609 37.6618 140.081 37.1098C139.577 36.5578 139.325 35.7538 139.325 34.6978V33.7618L139.541 34.2658C139.421 35.0338 139.145 35.6938 138.713 36.2458C138.281 36.7978 137.717 37.2298 137.021 37.5418C136.325 37.8538 135.533 38.0098 134.645 38.0098ZM158.238 38.0098C156.438 38.0098 154.95 37.7338 153.774 37.1818C152.622 36.6298 151.758 35.8018 151.182 34.6978C150.606 33.5698 150.318 32.1658 150.318 30.4858V24.6178H149.094C148.326 24.6178 147.726 24.4138 147.294 24.0058C146.886 23.5978 146.682 23.0098 146.682 22.2418C146.682 21.4738 146.886 20.8978 147.294 20.5138C147.726 20.1058 148.326 19.9018 149.094 19.9018H150.318V17.6698C150.318 16.6138 150.594 15.8098 151.146 15.2578C151.698 14.7058 152.49 14.4298 153.522 14.4298C154.554 14.4298 155.346 14.7058 155.898 15.2578C156.45 15.8098 156.726 16.6138 156.726 17.6698V19.9018H159.678C160.47 19.9018 161.07 20.1058 161.478 20.5138C161.91 20.8978 162.126 21.4738 162.126 22.2418C162.126 23.0098 161.91 23.5978 161.478 24.0058C161.07 24.4138 160.47 24.6178 159.678 24.6178H156.726V30.2698C156.726 31.1578 156.93 31.8178 157.338 32.2498C157.77 32.6578 158.442 32.8618 159.354 32.8618C159.69 32.8618 160.014 32.8258 160.326 32.7538C160.638 32.6818 160.926 32.6458 161.19 32.6458C161.574 32.6218 161.886 32.7418 162.126 33.0058C162.366 33.2458 162.486 33.8098 162.486 34.6978C162.486 35.4178 162.378 36.0298 162.162 36.5338C161.946 37.0138 161.562 37.3618 161.01 37.5778C160.674 37.6978 160.218 37.7938 159.642 37.8658C159.066 37.9618 158.598 38.0098 158.238 38.0098Z" fill="#206CDF"/>
<path d="M168.994 37.9378C167.962 37.9378 167.17 37.6618 166.618 37.1098C166.066 36.5578 165.79 35.7538 165.79 34.6978V24.6178H164.854C164.086 24.6178 163.486 24.4138 163.054 24.0058C162.646 23.5978 162.442 23.0098 162.442 22.2418C162.442 21.4738 162.646 20.8978 163.054 20.5138C163.486 20.1058 164.086 19.9018 164.854 19.9018H167.626L165.79 21.5938V20.5858C165.79 17.9218 166.45 15.9298 167.77 14.6098C169.114 13.2658 171.106 12.4618 173.746 12.1978L174.79 12.0898C175.558 11.9938 176.17 12.0898 176.626 12.3778C177.082 12.6418 177.394 13.0018 177.562 13.4578C177.73 13.8898 177.766 14.3458 177.67 14.8258C177.598 15.3058 177.418 15.7138 177.13 16.0498C176.842 16.3858 176.458 16.5778 175.978 16.6258L175.474 16.6618C174.25 16.7578 173.398 17.0218 172.918 17.4538C172.438 17.8858 172.198 18.5218 172.198 19.3618V20.5498L171.406 19.9018H174.25C175.042 19.9018 175.642 20.1058 176.05 20.5138C176.458 20.8978 176.662 21.4738 176.662 22.2418C176.662 23.0098 176.458 23.5978 176.05 24.0058C175.642 24.4138 175.042 24.6178 174.25 24.6178H172.198V34.6978C172.198 36.8578 171.13 37.9378 168.994 37.9378ZM185.482 38.0098C183.178 38.0098 181.474 37.3978 180.37 36.1738C179.29 34.9258 178.75 33.0538 178.75 30.5578V15.1498C178.75 14.0938 179.026 13.2898 179.578 12.7378C180.13 12.1858 180.91 11.9098 181.918 11.9098C182.95 11.9098 183.742 12.1858 184.294 12.7378C184.87 13.2898 185.158 14.0938 185.158 15.1498V30.3418C185.158 31.2298 185.326 31.8778 185.662 32.2858C186.022 32.6938 186.478 32.8978 187.03 32.8978C187.198 32.8978 187.366 32.8858 187.534 32.8618C187.726 32.8138 187.93 32.7778 188.146 32.7538C188.554 32.7538 188.854 32.9098 189.046 33.2218C189.262 33.5338 189.37 34.1698 189.37 35.1298C189.37 35.9698 189.202 36.6058 188.866 37.0378C188.53 37.4458 188.014 37.7098 187.318 37.8298C187.126 37.8538 186.85 37.8898 186.49 37.9378C186.13 37.9858 185.794 38.0098 185.482 38.0098ZM194.411 37.9378C193.403 37.9378 192.623 37.6378 192.071 37.0378C191.519 36.4378 191.243 35.5738 191.243 34.4458V23.0698C191.243 21.9418 191.519 21.0778 192.071 20.4778C192.623 19.8778 193.403 19.5778 194.411 19.5778C195.443 19.5778 196.235 19.8778 196.787 20.4778C197.363 21.0778 197.651 21.9418 197.651 23.0698V34.4458C197.651 35.5738 197.375 36.4378 196.823 37.0378C196.271 37.6378 195.467 37.9378 194.411 37.9378ZM194.411 17.0218C193.283 17.0218 192.407 16.7578 191.783 16.2298C191.183 15.7018 190.883 14.9338 190.883 13.9258C190.883 12.9418 191.183 12.1858 191.783 11.6578C192.407 11.1298 193.283 10.8658 194.411 10.8658C195.587 10.8658 196.475 11.1298 197.075 11.6578C197.675 12.1858 197.975 12.9418 197.975 13.9258C197.975 14.9338 197.675 15.7018 197.075 16.2298C196.475 16.7578 195.587 17.0218 194.411 17.0218ZM203.852 37.9018C203.06 37.9018 202.424 37.6858 201.944 37.2538C201.464 36.8218 201.212 36.2698 201.188 35.5978C201.188 34.9258 201.464 34.2418 202.016 33.5458L207.344 27.0658V29.9098L202.448 23.9338C201.896 23.2138 201.62 22.5298 201.62 21.8818C201.644 21.2098 201.896 20.6578 202.376 20.2258C202.856 19.7938 203.492 19.5778 204.284 19.5778C205.052 19.5778 205.676 19.7098 206.156 19.9738C206.66 20.2138 207.14 20.6218 207.596 21.1978L210.944 25.5178H208.712L212.06 21.1978C212.516 20.6218 212.996 20.2138 213.5 19.9738C214.004 19.7098 214.628 19.5778 215.372 19.5778C216.188 19.5778 216.824 19.7938 217.28 20.2258C217.76 20.6578 218 21.2098 218 21.8818C218.024 22.5538 217.748 23.2378 217.172 23.9338L212.276 29.9098V27.0658L217.64 33.5458C218.216 34.2178 218.492 34.8898 218.468 35.5618C218.444 36.2338 218.192 36.7978 217.712 37.2538C217.232 37.6858 216.584 37.9018 215.768 37.9018C215.024 37.9018 214.4 37.7818 213.896 37.5418C213.392 37.2778 212.912 36.8578 212.456 36.2818L208.712 31.4938H210.908L207.128 36.2818C206.696 36.8338 206.228 37.2418 205.724 37.5058C205.244 37.7698 204.62 37.9018 203.852 37.9018Z" fill="#F0F6FE"/>
<defs>
<linearGradient id="paint0_linear_559_16879" x1="-2.12068" y1="-8.51518" x2="23.9012" y2="30.111" gradientUnits="userSpaceOnUse">
<stop stop-color="#1B73F7"/>
<stop offset="1" stop-color="#D3E3FA"/>
</linearGradient>
<linearGradient id="paint1_linear_559_16879" x1="5.93966" y1="2.74244" x2="18.9506" y2="22.0555" gradientUnits="userSpaceOnUse">
<stop stop-color="#1B73F7"/>
<stop offset="1" stop-color="#060A12"/>
</linearGradient>
<linearGradient id="paint2_linear_559_16879" x1="35.7298" y1="-1.37491" x2="52.5247" y2="26.5578" gradientUnits="userSpaceOnUse">
<stop stop-color="#1B73F7"/>
<stop offset="1" stop-color="#D3E3FA"/>
</linearGradient>
<linearGradient id="paint3_linear_559_16879" x1="33.9397" y1="2.74241" x2="46.9506" y2="22.0555" gradientUnits="userSpaceOnUse">
<stop stop-color="#1B73F7"/>
<stop offset="1" stop-color="#060A12"/>
</linearGradient>
</defs>
</svg>
