<svg width="80" height="80" viewBox="0 0 80 80" fill="none" xmlns="http://www.w3.org/2000/svg">
<circle cx="40" cy="40" r="40" fill="#427AFF" fill-opacity="0.2"/>
<path d="M47.6067 37.1773L47.6099 37.1747C48.2484 36.6559 48.3497 35.7058 47.8347 35.0646C47.3243 34.3988 46.3647 34.3079 45.7278 34.8238C45.7272 34.8243 45.7266 34.8248 45.726 34.8252L41.5559 38.1559L41.555 38.1567C41.153 38.4793 40.5864 38.6566 39.9946 38.6566C39.4029 38.6566 38.8363 38.4793 38.4343 38.1567L38.4333 38.1559L34.2614 34.8237C33.6098 34.296 32.6714 34.4285 32.1599 35.058L32.1598 35.0579L32.154 35.0655C31.6545 35.7048 31.7526 36.6546 32.3927 37.1747L32.3959 37.1773L36.5673 40.5091C37.5357 41.2978 38.7846 41.6733 40.0013 41.6733C41.2209 41.6733 42.4548 41.2962 43.4339 40.5102C43.434 40.5101 43.4342 40.5099 43.4344 40.5098L47.6067 37.1773L47.6067 37.1773ZM33.3346 29.1666H46.668C48.5913 29.1666 50.1177 29.6475 51.1611 30.6164C52.1977 31.5789 52.8346 33.0953 52.8346 35.3333V44.6666C52.8346 46.9047 52.1977 48.421 51.1611 49.3836C50.1177 50.3524 48.5913 50.8333 46.668 50.8333H33.3346C31.4113 50.8333 29.8849 50.3524 28.8415 49.3836C27.8049 48.421 27.168 46.9047 27.168 44.6666V35.3333C27.168 33.0953 27.8049 31.5789 28.8415 30.6164C29.8849 29.6475 31.4113 29.1666 33.3346 29.1666Z" fill="#427AFF" stroke="#427AFF"/>
</svg>
